<mxfile host="app.diagrams.net" modified="2023-08-02T19:06:09.727Z" agent="Mozilla/5.0 (Windows NT 10.0; Win64; x64) AppleWebKit/537.36 (KHTML, like Gecko) Chrome/115.0.0.0 Safari/537.36" etag="7WQjC5xbLitp6EMn8wbh" version="21.5.2" type="github">
  <diagram id="R2lEEEUBdFMjLlhIrx00" name="Page-1">
    <mxGraphModel dx="1050" dy="534" grid="1" gridSize="10" guides="1" tooltips="1" connect="1" arrows="1" fold="1" page="1" pageScale="1" pageWidth="850" pageHeight="1100" math="0" shadow="0" extFonts="Permanent Marker^https://fonts.googleapis.com/css?family=Permanent+Marker">
      <root>
        <mxCell id="0" />
        <mxCell id="1" parent="0" />
        <mxCell id="ZYWp0wBJN8ED1sJcuAn0-1" value="Maquinas" style="whiteSpace=wrap;html=1;align=center;" vertex="1" parent="1">
          <mxGeometry x="220" y="190" width="60" height="30" as="geometry" />
        </mxCell>
        <mxCell id="ZYWp0wBJN8ED1sJcuAn0-2" value="Provincias" style="whiteSpace=wrap;html=1;align=center;" vertex="1" parent="1">
          <mxGeometry x="650" y="240" width="60" height="30" as="geometry" />
        </mxCell>
        <mxCell id="ZYWp0wBJN8ED1sJcuAn0-3" value="Obras" style="whiteSpace=wrap;html=1;align=center;" vertex="1" parent="1">
          <mxGeometry x="330" y="100" width="40" height="30" as="geometry" />
        </mxCell>
        <mxCell id="ZYWp0wBJN8ED1sJcuAn0-4" value="Localidades" style="whiteSpace=wrap;html=1;align=center;" vertex="1" parent="1">
          <mxGeometry x="560" y="80" width="80" height="30" as="geometry" />
        </mxCell>
        <mxCell id="ZYWp0wBJN8ED1sJcuAn0-5" value="TipoMaquina" style="whiteSpace=wrap;html=1;align=center;" vertex="1" parent="1">
          <mxGeometry x="400" y="190" width="70" height="30" as="geometry" />
        </mxCell>
        <mxCell id="ZYWp0wBJN8ED1sJcuAn0-6" value="Responsables" style="whiteSpace=wrap;html=1;align=center;" vertex="1" parent="1">
          <mxGeometry x="110" y="360" width="80" height="30" as="geometry" />
        </mxCell>
        <mxCell id="ZYWp0wBJN8ED1sJcuAn0-8" value="Reserva" style="shape=ext;margin=3;double=1;whiteSpace=wrap;html=1;align=center;" vertex="1" parent="1">
          <mxGeometry x="390" y="360" width="60" height="30" as="geometry" />
        </mxCell>
      </root>
    </mxGraphModel>
  </diagram>
</mxfile>
